<?xml version="1.0" standalone="no"?>
<!DOCTYPE svg PUBLIC "-//W3C//DTD SVG 20010904//EN"
 "http://www.w3.org/TR/2001/REC-SVG-20010904/DTD/svg10.dtd">
<svg version="1.0" xmlns="http://www.w3.org/2000/svg"
 width="1200.000000pt" height="500.000000pt" viewBox="0 0 1200.000000 500.000000"
 preserveAspectRatio="xMidYMid meet">
<metadata>
Created by potrace 1.15, written by Peter Selinger 2001-2017
</metadata>
<g transform="translate(0.000000,500.000000) scale(0.100000,-0.100000)"
fill="#000000" stroke="none">
<path d="M3203 3630 c-109 -28 -175 -77 -216 -160 l-22 -45 0 -805 0 -805 27
-50 c47 -89 111 -132 238 -161 68 -15 144 -15 181 0 13 6 17 -2 22 -37 16
-118 57 -147 207 -147 l100 0 0 105 0 105 -80 0 c-50 0 -80 4 -80 11 0 6 22
32 49 58 40 39 53 61 70 118 20 68 21 89 21 803 0 702 -1 736 -20 799 -35 118
-112 184 -249 215 -93 20 -157 19 -248 -4z m194 -234 l28 -24 0 -752 0 -752
-28 -24 c-53 -46 -123 -24 -146 45 -8 24 -11 240 -11 736 0 747 1 757 47 784
32 18 80 12 110 -13z"/>
<path d="M4140 3631 c-119 -31 -175 -72 -221 -161 -23 -43 -24 -56 -27 -269
-3 -207 -2 -230 18 -287 30 -90 56 -132 175 -284 58 -74 127 -161 152 -194 25
-32 62 -91 82 -130 l36 -71 0 -183 0 -184 -28 -24 c-33 -28 -77 -31 -112 -8
-36 24 -45 89 -45 329 l0 215 -141 0 -140 0 3 -282 3 -283 27 -50 c46 -87 110
-131 232 -159 85 -20 135 -20 227 0 135 30 214 97 249 212 17 55 20 93 20 271
0 184 -2 212 -21 260 -27 73 -88 165 -218 330 -137 174 -207 276 -226 331 -18
51 -21 253 -4 329 17 80 87 107 146 57 l28 -24 3 -236 3 -236 145 0 144 0 0
227 c0 261 -10 319 -68 391 -47 59 -103 92 -192 113 -93 23 -165 22 -250 0z"/>
<path d="M2200 2620 l0 -980 325 0 326 0 -3 123 -3 122 -182 3 -183 2 0 350 0
350 175 0 175 0 0 125 0 125 -175 0 -175 0 0 255 0 255 180 0 180 0 0 125 0
125 -320 0 -320 0 0 -980z"/>
<path d="M5220 2385 l0 -745 95 0 95 0 0 30 c0 34 8 37 36 12 37 -34 92 -62
122 -62 57 0 111 29 132 71 19 36 20 62 20 539 0 477 -1 503 -20 539 -44 88
-189 94 -248 10 -7 -11 -20 -19 -28 -19 -12 0 -14 30 -14 185 l0 185 -95 0
-95 0 0 -745z m281 276 l24 -19 3 -374 c2 -205 0 -392 -3 -416 -12 -79 -79
-92 -104 -21 -15 43 -15 756 -1 796 10 26 35 53 51 53 4 0 17 -9 30 -19z"/>
<path d="M9670 2945 c0 -155 -2 -185 -14 -185 -8 0 -21 8 -28 19 -59 84 -204
78 -248 -10 -19 -36 -20 -62 -20 -539 0 -477 1 -503 20 -539 21 -42 75 -71
132 -71 30 0 85 28 122 62 28 25 36 22 36 -12 l0 -30 95 0 95 0 0 745 0 745
-95 0 -95 0 0 -185z m-40 -275 c36 -19 40 -62 40 -440 0 -242 -4 -378 -11
-399 -25 -71 -92 -58 -104 21 -3 24 -5 211 -3 416 l3 374 24 19 c27 22 27 22
51 9z"/>
<path d="M7880 2935 l0 -105 -30 0 -30 0 0 -74 c0 -74 0 -75 28 -78 l27 -3 5
-475 c4 -366 8 -480 18 -498 25 -44 70 -62 155 -62 l77 0 0 68 c0 63 -2 70
-24 80 -19 8 -26 21 -31 54 -3 24 -5 221 -3 438 l3 395 28 3 c27 3 27 4 27 78
l0 74 -30 0 -29 0 -3 103 -3 102 -92 3 -93 3 0 -106z"/>
<path d="M6870 2820 c-69 -25 -117 -76 -125 -134 -3 -22 -5 -244 -3 -492 l3
-451 29 -37 c73 -96 279 -114 389 -32 56 41 67 85 67 264 l0 162 -94 0 -95 0
-3 -160 c-3 -170 -6 -180 -53 -180 -49 0 -50 5 -50 232 l0 213 148 3 148 3 -3
253 -3 253 -29 37 c-58 76 -213 108 -326 66z m150 -130 c12 -7 16 -41 18 -180
l3 -170 -56 0 -56 0 3 170 c3 181 6 190 53 190 11 0 27 -5 35 -10z"/>
<path d="M8332 2821 c-64 -22 -109 -63 -123 -111 -7 -23 -9 -199 -7 -501 l3
-466 29 -37 c95 -125 367 -107 435 29 19 38 21 60 21 204 l0 161 -94 0 -95 0
-3 -160 c-3 -170 -6 -180 -53 -180 -49 0 -50 5 -50 232 l0 213 148 3 147 3 0
237 c0 222 -1 240 -21 277 -29 55 -52 74 -114 96 -68 24 -154 24 -223 0z m148
-131 c12 -7 16 -41 18 -180 l3 -170 -55 0 -56 0 0 164 c0 136 3 167 16 180 17
18 51 21 74 6z"/>
<path d="M9055 2825 c-16 -9 -41 -28 -55 -43 l-25 -27 -5 35 -5 35 -92 3 -93
3 0 -596 0 -595 95 0 95 0 0 489 c0 290 4 500 10 515 12 33 55 45 78 22 15
-15 17 -66 20 -521 l3 -505 94 0 95 0 0 543 c0 335 -4 555 -10 577 -6 19 -22
44 -37 55 -37 26 -128 32 -168 10z"/>
<path d="M5781 2803 c0 -15 4 -53 9 -83 15 -92 61 -424 94 -680 9 -63 20 -142
25 -175 39 -236 43 -275 31 -304 -12 -31 -34 -41 -87 -41 l-33 0 0 -76 0 -76
119 3 c172 6 189 23 216 219 25 181 36 265 50 360 8 52 17 118 20 145 3 28 12
93 20 145 29 196 68 480 78 565 2 19 -5 20 -90 23 l-92 3 -6 -48 c-3 -26 -10
-75 -15 -108 -5 -33 -12 -100 -15 -150 -3 -49 -10 -112 -16 -140 -5 -27 -13
-141 -18 -252 -12 -254 -26 -290 -34 -87 -4 82 -9 165 -11 184 -2 19 -7 78
-10 130 -4 52 -13 149 -21 215 -8 66 -18 149 -22 185 l-8 65 -92 3 -93 3 1
-28z"/>
<path d="M7280 2823 c1 -5 5 -28 10 -53 19 -88 52 -256 61 -310 5 -30 16 -84
25 -119 16 -64 15 -96 -6 -191 -13 -60 -53 -266 -83 -432 l-14 -78 88 0 c48 0
90 4 93 9 3 4 12 64 21 132 8 68 20 151 25 184 5 33 10 78 10 99 0 65 19 29
30 -55 32 -261 39 -318 45 -342 l7 -27 100 0 c59 0 97 4 93 9 -5 9 -50 244
-95 505 -19 109 -19 110 1 230 32 188 47 275 62 356 8 41 12 78 10 83 -5 9
-170 9 -177 -1 -2 -4 -9 -61 -15 -127 -13 -141 -31 -248 -40 -240 -3 4 -11 50
-17 103 -16 135 -36 245 -47 260 -10 13 -187 18 -187 5z"/>
</g>
</svg>
