<?xml version="1.0" standalone="no"?>
<!DOCTYPE svg PUBLIC "-//W3C//DTD SVG 20010904//EN"
 "http://www.w3.org/TR/2001/REC-SVG-20010904/DTD/svg10.dtd">
<svg version="1.0" xmlns="http://www.w3.org/2000/svg"
 width="400.000000pt" height="180.000000pt" viewBox="0 0 400.000000 180.000000"
 preserveAspectRatio="xMidYMid meet">
<metadata>
Created by potrace 1.15, written by Peter Selinger 2001-2017
</metadata>
<g transform="translate(0.000000,180.000000) scale(0.100000,-0.100000)"
fill="#000000" stroke="none">
<path d="M876 1420 c-52 -16 -106 -82 -106 -130 0 -11 9 -39 21 -61 26 -51 91
-84 151 -76 143 19 175 199 45 257 -46 21 -66 23 -111 10z"/>
<path d="M1084 1390 c48 -58 41 -175 -14 -225 -19 -17 -20 -33 -20 -307 l0
-288 115 0 115 0 0 280 0 280 110 0 110 0 0 145 0 145 -221 0 -221 0 26 -30z"/>
<path d="M2325 1141 c-41 -17 -59 -50 -63 -117 l-4 -64 -34 0 c-31 0 -34 -3
-34 -30 0 -28 3 -30 35 -30 l35 0 0 -165 0 -165 30 0 30 0 0 165 0 165 45 0
c43 0 45 1 45 30 0 29 -2 30 -45 30 l-45 0 0 45 c0 61 35 100 80 90 28 -6 30
-5 30 24 0 30 -2 31 -42 30 -24 0 -52 -4 -63 -8z"/>
<path d="M1680 1122 c-40 -32 -1 -85 44 -60 22 12 20 55 -3 68 -15 7 -24 5
-41 -8z"/>
<path d="M830 846 l0 -276 90 0 90 0 0 275 0 275 -32 -8 c-42 -9 -75 -8 -115
2 l-33 8 0 -276z"/>
<path d="M1455 961 c-70 -18 -105 -54 -105 -109 0 -53 17 -72 94 -107 80 -36
99 -54 94 -87 -5 -35 -52 -53 -108 -41 -25 6 -53 13 -62 18 -15 6 -18 2 -18
-23 0 -38 7 -42 75 -49 64 -7 136 16 160 50 8 12 15 40 15 62 0 52 -21 73
-112 114 -54 24 -69 35 -74 57 -11 43 26 67 91 61 27 -2 58 -8 68 -12 14 -6
17 -2 17 23 0 21 -6 32 -17 36 -39 11 -90 14 -118 7z"/>
<path d="M1944 960 c-43 -14 -111 -90 -120 -134 -12 -67 0 -151 28 -194 38
-56 85 -76 169 -70 80 6 119 27 119 63 0 25 -18 33 -36 16 -17 -18 -94 -29
-129 -20 -40 11 -85 61 -85 95 l0 24 135 0 135 0 0 48 c0 56 -32 127 -70 154
-30 22 -104 31 -146 18z m107 -63 c20 -15 39 -51 39 -71 0 -14 -16 -16 -100
-16 -55 0 -100 2 -100 5 0 16 33 66 52 79 27 19 86 20 109 3z"/>
<path d="M2556 960 c-16 -5 -44 -24 -62 -41 -97 -94 -80 -291 29 -342 41 -20
126 -21 177 -4 29 10 36 17 38 45 3 32 2 33 -20 21 -91 -49 -197 -15 -214 69
l-6 32 137 0 137 0 -4 65 c-4 68 -21 102 -69 137 -29 21 -103 31 -143 18z
m118 -76 c14 -15 26 -37 26 -50 0 -24 -2 -24 -100 -24 -55 0 -100 2 -100 5 0
16 33 66 52 79 36 25 91 20 122 -10z"/>
<path d="M2995 955 c-22 -8 -48 -24 -57 -35 -17 -20 -17 -20 -20 7 -3 24 -8
28 -33 28 l-30 0 -3 -192 -2 -193 35 0 35 0 0 131 c0 76 5 139 11 152 29 56
104 75 150 38 23 -18 24 -25 27 -170 l3 -151 36 0 35 0 -4 148 c-3 158 -12
190 -58 223 -36 25 -79 30 -125 14z"/>
<path d="M1670 745 c0 -237 -7 -275 -55 -297 -20 -9 -34 -9 -56 -1 -30 12 -30
11 -27 -20 4 -46 42 -57 105 -31 38 16 52 28 72 69 26 49 26 53 26 270 l0 220
-32 3 -33 3 0 -216z"/>
</g>
</svg>
