<?xml version="1.0" standalone="no"?>
<!DOCTYPE svg PUBLIC "-//W3C//DTD SVG 20010904//EN"
 "http://www.w3.org/TR/2001/REC-SVG-20010904/DTD/svg10.dtd">
<svg version="1.0" xmlns="http://www.w3.org/2000/svg"
 width="400.000000pt" height="180.000000pt" viewBox="0 0 400.000000 180.000000"
 preserveAspectRatio="xMidYMid meet">
<metadata>
Created by potrace 1.15, written by Peter Selinger 2001-2017
</metadata>
<g transform="translate(0.000000,180.000000) scale(0.100000,-0.100000)"
fill="#000000" stroke="none">
<path d="M881 1140 c-76 -16 -131 -49 -161 -97 -59 -93 -60 -184 -4 -280 90
-155 417 -144 501 16 32 61 32 175 2 239 -24 48 -82 96 -138 112 -54 16 -150
20 -200 10z m190 -21 c52 -18 97 -56 120 -101 17 -34 20 -55 17 -119 -3 -68
-7 -82 -34 -116 -39 -49 -99 -79 -174 -88 -33 -4 -60 -11 -60 -16 0 -17 -65
-9 -117 15 -72 34 -106 87 -111 173 -9 141 60 220 211 238 31 4 60 11 63 16 7
12 44 11 85 -2z"/>
<path d="M868 1071 c-76 -25 -118 -85 -118 -171 0 -111 61 -170 183 -178 40
-2 91 1 116 8 147 40 174 247 42 324 -38 22 -175 32 -223 17z m207 -29 c60
-35 83 -132 47 -201 -22 -45 -58 -70 -107 -77 -22 -4 -45 -13 -52 -21 -15 -19
-74 -10 -120 18 -61 38 -80 149 -36 215 19 30 82 64 118 64 14 0 28 7 32 16 7
20 72 12 118 -14z"/>
<path d="M932 985 c-21 -45 -15 -64 26 -82 40 -20 53 -54 32 -93 -19 -36 36
-26 76 14 28 28 34 42 34 76 0 34 -6 48 -34 76 -28 28 -41 34 -78 34 -38 0
-46 -4 -56 -25z"/>
<path d="M1459 1019 c-30 -11 -50 -48 -42 -78 7 -28 37 -45 121 -70 56 -17 72
-26 72 -40 0 -11 -7 -22 -16 -25 -28 -11 -94 -6 -131 9 -45 19 -43 20 -43 -15
0 -26 5 -30 42 -41 23 -6 77 -9 119 -7 65 3 82 7 103 27 55 52 18 107 -89 136
-67 19 -92 36 -80 56 8 12 134 8 168 -6 16 -7 18 -4 15 21 -2 20 -10 30 -28
35 -37 10 -181 9 -211 -2z"/>
<path d="M1790 890 l0 -140 40 0 40 0 0 140 0 140 -40 0 -40 0 0 -140z"/>
<path d="M1960 890 l0 -140 40 0 40 0 0 90 c0 50 3 90 6 90 4 0 49 -40 101
-90 81 -78 98 -90 128 -90 l35 0 0 140 0 140 -40 0 -39 0 -3 -86 -3 -87 -92
87 c-85 78 -96 86 -133 86 l-40 0 0 -140z"/>
<path d="M2352 1008 c3 -21 9 -23 66 -26 l62 -3 0 -114 0 -115 40 0 40 0 0
115 0 114 63 3 c56 3 62 5 65 26 l3 22 -171 0 -171 0 3 -22z"/>
<path d="M2730 890 l0 -140 135 0 135 0 0 25 c0 25 0 25 -95 25 l-95 0 0 35 0
35 85 0 c84 0 85 0 85 25 0 25 -1 25 -85 25 l-85 0 0 30 0 30 95 0 c95 0 95 0
95 25 l0 25 -135 0 -135 0 0 -140z"/>
<path d="M3052 893 l3 -138 43 -3 42 -3 0 60 0 61 86 0 c83 0 85 1 82 23 -3
20 -9 22 -85 25 l-83 3 0 29 0 30 95 0 c95 0 95 0 95 25 l0 25 -140 0 -141 0
3 -137z"/>
</g>
</svg>
