<?xml version="1.0" standalone="no"?>
<!DOCTYPE svg PUBLIC "-//W3C//DTD SVG 20010904//EN"
 "http://www.w3.org/TR/2001/REC-SVG-20010904/DTD/svg10.dtd">
<svg version="1.0" xmlns="http://www.w3.org/2000/svg"
 width="533.000000pt" height="260.000000pt" viewBox="0 0 533.000000 260.000000"
 preserveAspectRatio="xMidYMid meet">
<metadata>
Created by potrace 1.15, written by Peter Selinger 2001-2017
</metadata>
<g transform="translate(0.000000,260.000000) scale(0.100000,-0.100000)"
fill="#000000" stroke="none">
<path d="M1470 2054 c-36 -8 -107 -34 -158 -60 -140 -69 -268 -204 -327 -346
l-15 -38 198 0 198 0 32 44 c44 63 101 98 167 104 30 2 65 2 79 -2 46 -11 94
-64 117 -127 12 -32 25 -59 29 -59 11 0 341 118 347 124 3 3 -3 29 -12 58 -59
179 -152 269 -314 304 -83 17 -255 16 -341 -2z"/>
<path d="M2680 2056 c-229 -48 -382 -184 -421 -374 -7 -34 -11 -63 -8 -66 2
-2 105 -6 228 -8 158 -3 219 -1 206 7 -58 33 -69 68 -32 109 60 70 292 46 438
-43 27 -17 53 -31 57 -31 5 0 57 61 117 136 124 156 124 138 1 201 -110 55
-199 74 -371 79 -101 2 -171 -1 -215 -10z"/>
<path d="M3752 1836 c-56 -117 -102 -216 -102 -220 0 -3 137 -6 305 -6 l305 0
-5 23 c-3 12 -16 87 -30 167 -14 80 -30 169 -36 198 l-10 52 -163 0 -163 0
-101 -214z"/>
<path d="M914 1393 c-21 -150 0 -312 53 -417 35 -69 126 -156 196 -190 214
-101 521 -63 716 87 48 37 171 171 171 187 0 6 -267 154 -285 157 -5 1 -31
-25 -57 -57 -63 -78 -124 -113 -203 -118 -83 -5 -140 25 -175 94 -23 45 -25
59 -25 181 l0 133 -192 0 -192 0 -7 -57z"/>
<path d="M2289 1431 c14 -25 74 -77 113 -97 50 -26 163 -63 275 -89 119 -28
169 -48 200 -77 26 -24 28 -36 12 -72 -19 -40 -66 -56 -169 -56 -114 0 -188
18 -308 76 -52 25 -95 44 -96 42 -1 -2 -38 -48 -82 -103 -44 -55 -92 -116
-107 -136 l-27 -37 77 -40 c160 -83 340 -119 536 -109 251 13 419 97 509 254
57 100 74 273 33 353 -9 19 -33 52 -53 73 l-36 37 -443 0 c-430 0 -443 -1
-434 -19z"/>
<path d="M3561 1432 c-17 -31 -321 -674 -321 -678 0 -3 77 -3 172 -2 l171 3
47 110 47 110 180 3 180 2 14 -112 14 -113 173 -3 c120 -2 172 1 172 8 0 7
-27 162 -60 345 -33 183 -60 336 -60 339 0 3 -70 6 -156 6 l-156 0 7 -52 c3
-29 9 -72 12 -95 l5 -43 -101 0 c-55 0 -101 2 -101 4 0 3 16 42 35 87 19 46
35 87 35 91 0 4 -67 8 -150 8 -132 0 -150 -2 -159 -18z"/>
</g>
</svg>
