<?xml version="1.0" standalone="no"?>
<!DOCTYPE svg PUBLIC "-//W3C//DTD SVG 20010904//EN"
 "http://www.w3.org/TR/2001/REC-SVG-20010904/DTD/svg10.dtd">
<svg version="1.0" xmlns="http://www.w3.org/2000/svg"
 width="600.000000pt" height="315.000000pt" viewBox="0 0 600.000000 315.000000"
 preserveAspectRatio="xMidYMid meet">
<metadata>
Created by potrace 1.16, written by Peter Selinger 2001-2019
</metadata>
<g transform="translate(0.000000,315.000000) scale(0.100000,-0.100000)"
fill="#000000" stroke="none">
<path d="M2692 2973 l-303 -176 3 -371 c3 -353 4 -374 25 -429 50 -133 175
-274 337 -382 97 -63 218 -125 246 -125 20 0 160 66 160 75 0 3 -36 26 -80 51
l-80 47 0 93 c0 52 2 94 6 94 3 0 75 -41 160 -90 l156 -90 36 29 c64 50 84 77
70 88 -7 5 -106 63 -220 129 l-208 118 0 94 c0 81 2 93 16 88 8 -3 128 -71
266 -151 138 -80 257 -144 263 -141 7 2 22 32 35 66 23 60 23 63 5 76 -10 7
-145 87 -301 176 l-284 163 0 93 c0 50 4 92 8 92 5 0 130 -70 278 -156 148
-86 281 -162 297 -170 l27 -15 0 89 0 88 -301 174 c-165 95 -303 178 -305 185
-3 6 -4 50 -2 98 l3 86 260 -150 c143 -83 279 -162 303 -175 l42 -25 0 90 0
89 -305 176 c-168 97 -307 176 -308 175 -1 0 -138 -80 -305 -176z"/>
<path d="M2338 971 c-103 -41 -148 -102 -148 -203 0 -101 68 -159 228 -193
144 -31 186 -47 219 -80 57 -57 37 -147 -41 -185 -56 -27 -173 -28 -231 -1
-47 21 -92 70 -101 109 -11 52 -12 53 -56 50 l-43 -3 4 -40 c15 -173 229 -269
445 -198 146 47 203 222 107 326 -38 42 -86 63 -218 96 -192 48 -213 61 -213
137 0 55 35 96 96 113 112 31 217 -13 248 -104 14 -38 16 -40 58 -40 l43 0 -3
35 c-8 88 -76 164 -172 190 -57 16 -170 11 -222 -9z"/>
<path d="M180 595 l0 -375 50 0 50 0 0 375 0 375 -50 0 -50 0 0 -375z"/>
<path d="M390 594 l0 -375 218 3 c202 3 220 5 259 25 115 62 149 222 66 314
-20 22 -46 42 -59 45 -31 8 -30 16 7 43 36 27 68 92 69 139 0 37 -23 97 -48
126 -9 10 -35 27 -57 37 -35 16 -68 19 -247 19 l-208 0 0 -376z m400 278 c57
-28 77 -100 45 -161 -23 -46 -77 -61 -220 -61 l-125 0 0 120 0 120 133 0 c106
0 139 -4 167 -18z m27 -325 c59 -32 79 -105 47 -173 -28 -58 -59 -68 -226 -72
l-148 -4 0 137 0 137 148 -4 c114 -3 154 -8 179 -21z"/>
<path d="M1060 595 l0 -375 45 0 45 0 0 305 c0 168 3 305 8 305 4 0 58 -137
121 -305 l113 -305 43 0 43 0 113 305 c63 168 117 305 122 305 4 0 7 -137 7
-305 l0 -305 45 0 45 0 0 375 0 375 -70 0 c-38 0 -70 -2 -70 -3 0 -3 -80 -217
-207 -551 -20 -52 -28 -65 -35 -53 -7 13 -169 440 -220 580 -10 26 -13 27 -79
27 l-69 0 0 -375z"/>
<path d="M4810 920 l0 -50 45 0 45 0 0 50 0 50 -45 0 -45 0 0 -50z"/>
<path d="M5060 851 l0 -80 -47 -3 c-47 -3 -48 -3 -51 -40 l-3 -37 48 -3 48 -3
5 -205 c3 -113 9 -213 13 -222 12 -23 60 -38 123 -38 l54 0 0 40 0 40 -45 0
c-40 0 -47 3 -55 26 -6 15 -9 99 -8 193 l3 166 53 3 52 3 0 40 0 39 -55 0 -55
0 0 80 0 80 -40 0 -40 0 0 -79z"/>
<path d="M2987 764 c-160 -51 -222 -279 -122 -449 36 -62 98 -96 184 -103 124
-9 218 45 248 143 l11 35 -42 0 c-37 0 -43 -4 -59 -33 -10 -18 -31 -41 -47
-50 -38 -23 -126 -22 -170 2 -42 22 -80 83 -80 129 l0 32 205 0 c197 0 205 1
205 20 0 33 -22 124 -37 155 -20 39 -71 93 -105 111 -42 22 -136 26 -191 8z
m153 -85 c37 -21 80 -81 80 -113 0 -14 -19 -16 -155 -16 -175 0 -176 0 -131
74 44 73 132 96 206 55z"/>
<path d="M3565 771 c-79 -20 -142 -79 -170 -160 -19 -58 -19 -186 0 -242 37
-103 119 -159 236 -159 119 0 212 70 234 178 l7 32 -45 0 c-40 0 -46 -3 -52
-27 -18 -74 -73 -108 -162 -101 -49 4 -61 10 -89 41 -85 93 -64 295 36 349 76
40 177 12 206 -57 13 -33 17 -35 59 -35 44 0 45 1 39 28 -29 120 -159 187
-299 153z"/>
<path d="M4675 765 c-24 -8 -57 -33 -82 -62 l-43 -47 0 57 0 57 -40 0 -40 0 0
-275 0 -275 44 0 45 0 3 168 c2 139 6 173 22 205 24 49 65 77 124 85 l47 7 3
48 c3 43 1 47 -20 47 -13 -1 -41 -7 -63 -15z"/>
<path d="M3934 755 c-3 -8 -4 -105 -2 -217 3 -181 5 -207 24 -243 53 -103 245
-116 319 -21 l25 31 0 -42 0 -43 40 0 40 0 0 275 0 275 -39 0 -39 0 -4 -182
c-3 -207 -14 -245 -78 -280 -43 -22 -122 -24 -155 -2 -38 25 -45 64 -45 270
l0 194 -40 0 c-26 0 -43 -5 -46 -15z"/>
<path d="M4817 763 c-4 -3 -7 -127 -7 -275 l0 -268 45 0 45 0 0 275 0 275 -38
0 c-21 0 -42 -3 -45 -7z"/>
<path d="M5318 764 c-3 -3 43 -126 102 -273 l107 -268 -19 -49 c-27 -70 -61
-98 -110 -90 l-38 6 0 -40 c0 -34 3 -40 26 -46 33 -9 90 1 120 21 34 22 58 75
189 415 65 168 120 311 122 318 4 10 -6 12 -43 10 l-49 -3 -74 -217 c-40 -120
-76 -218 -80 -218 -3 0 -32 76 -65 168 -105 300 -91 272 -140 272 -23 0 -45
-3 -48 -6z"/>
</g>
</svg>
