<?xml version="1.0" standalone="no"?>
<!DOCTYPE svg PUBLIC "-//W3C//DTD SVG 20010904//EN"
 "http://www.w3.org/TR/2001/REC-SVG-20010904/DTD/svg10.dtd">
<svg version="1.0" xmlns="http://www.w3.org/2000/svg"
 width="900.000000pt" height="338.000000pt" viewBox="0 0 900.000000 338.000000"
 preserveAspectRatio="xMidYMid meet">
<metadata>
Created by potrace 1.16, written by Peter Selinger 2001-2019
</metadata>
<g transform="translate(0.000000,338.000000) scale(0.100000,-0.100000)"
fill="#000000" stroke="none">
<path d="M1609 2352 c-43 -22 -59 -38 -81 -81 l-28 -53 0 -477 0 -477 26 -52
c19 -39 38 -59 72 -80 l47 -27 473 -3 c311 -2 486 1 512 8 51 14 98 54 121
105 15 33 19 66 19 198 l0 157 -23 0 c-31 0 -47 18 -47 54 0 56 20 106 46 118
l24 11 0 236 c0 207 -3 241 -19 276 -22 50 -69 91 -119 105 -23 6 -213 10
-503 10 l-467 0 -53 -28z m675 -388 c9 -8 16 -20 16 -26 0 -6 -25 -157 -56
-337 -46 -264 -60 -330 -77 -348 -41 -45 -102 -18 -92 40 3 18 30 171 59 341
47 273 56 312 76 328 27 22 54 23 74 2z m370 -53 c16 -18 16 -26 -8 -161 -27
-157 -40 -183 -89 -178 -50 5 -53 22 -27 174 19 111 29 144 47 162 27 27 54
28 77 3z m-603 -170 l24 -19 -33 -199 c-48 -283 -58 -325 -78 -340 -25 -18
-58 -16 -77 5 -15 16 -13 37 28 272 41 233 47 257 70 278 32 27 36 27 66 3z
m-394 -109 c16 -10 18 -30 10 -89 -8 -55 -32 -83 -72 -83 -44 0 -56 44 -35
122 14 50 60 74 97 50z m197 -14 c8 -13 5 -53 -12 -155 -20 -120 -26 -141 -49
-161 -31 -28 -63 -25 -79 6 -9 17 -6 51 12 154 28 153 41 181 86 176 17 -2 36
-11 42 -20z"/>
<path d="M4522 2364 l-22 -15 0 -417 c0 -385 2 -420 19 -458 28 -61 76 -86
172 -92 l79 -5 0 55 0 55 -52 6 c-92 11 -88 -11 -88 453 l0 403 -22 15 c-12 9
-32 16 -43 16 -11 0 -31 -7 -43 -16z"/>
<path d="M6220 2367 l-25 -13 -3 -394 c-2 -217 0 -414 3 -437 7 -47 42 -96 85
-118 16 -8 61 -18 100 -21 l71 -7 -3 54 -3 54 -49 6 c-31 3 -53 12 -62 24 -11
15 -14 96 -14 427 l0 407 -30 16 c-35 18 -38 18 -70 2z"/>
<path d="M6592 2277 c-6 -7 -13 -60 -14 -118 l-3 -104 -35 -5 c-33 -5 -35 -7
-38 -47 l-3 -42 38 -3 38 -3 5 -230 c5 -243 6 -249 58 -298 23 -22 45 -31 100
-39 93 -15 102 -10 102 52 l0 50 -43 0 c-47 0 -83 24 -92 63 -3 12 -4 108 -3
212 l3 190 68 3 67 3 0 44 0 45 -70 0 -70 0 0 110 c0 98 -2 110 -19 120 -27
14 -76 13 -89 -3z"/>
<path d="M3190 2057 l-25 -13 -3 -472 -2 -472 65 0 65 0 0 170 c0 94 2 170 5
170 2 0 21 -11 41 -25 50 -34 109 -48 166 -41 141 19 200 98 213 287 9 116 -7
238 -38 299 -13 26 -41 58 -66 75 -36 25 -54 30 -116 33 -84 5 -128 -7 -167
-43 -32 -30 -38 -31 -38 -6 0 37 -59 60 -100 38z m320 -122 c50 -26 64 -66 68
-196 3 -100 1 -123 -16 -162 -26 -58 -62 -82 -123 -82 -99 0 -142 65 -143 219
-1 115 18 182 61 216 31 25 110 27 153 5z"/>
<path d="M3947 2056 c-45 -17 -107 -63 -106 -79 0 -7 18 -27 39 -45 l39 -34
35 27 c65 50 202 43 245 -12 15 -18 21 -40 21 -78 l0 -52 -132 -5 c-139 -5
-175 -14 -226 -62 -38 -34 -52 -71 -52 -136 0 -88 32 -145 100 -180 79 -40
202 -37 265 6 45 30 55 30 55 -1 0 -24 2 -25 66 -25 l65 0 -3 268 c-3 254 -4
269 -25 309 -43 79 -122 113 -262 113 -47 -1 -103 -7 -124 -14z m273 -431 c0
-56 -3 -69 -27 -95 -50 -56 -180 -64 -230 -14 -49 49 -22 145 45 160 15 3 32
7 37 9 6 2 47 4 93 4 l82 1 0 -65z"/>
<path d="M4997 2056 c-128 -46 -184 -163 -175 -367 6 -124 30 -191 90 -245 58
-52 101 -68 188 -68 63 -1 85 4 132 27 67 33 112 83 133 147 34 107 27 297
-14 378 -26 50 -76 97 -131 121 -53 24 -164 28 -223 7z m197 -137 c45 -39 56
-79 56 -205 0 -86 -3 -107 -23 -145 -58 -109 -218 -98 -259 19 -7 22 -13 80
-12 142 0 88 3 112 22 147 27 53 62 72 129 73 44 0 58 -5 87 -31z"/>
<path d="M5645 2061 c-56 -14 -125 -61 -125 -86 0 -6 16 -26 35 -45 l35 -34
22 21 c38 34 64 43 130 43 105 0 152 -41 153 -133 l0 -52 -140 -6 c-77 -3
-149 -9 -160 -14 -95 -40 -135 -136 -104 -247 13 -48 67 -101 118 -116 86 -26
214 -10 263 34 21 20 38 10 38 -22 0 -23 3 -24 55 -24 l55 0 0 259 c0 275 -4
306 -49 355 -43 47 -103 68 -206 71 -49 2 -103 0 -120 -4z m253 -436 c-3 -36
-13 -76 -21 -89 -26 -39 -81 -59 -155 -54 -58 4 -68 8 -93 36 -48 53 -33 122
31 154 27 14 60 18 139 18 l104 0 -5 -65z"/>
<path d="M7128 2060 c-91 -23 -161 -98 -184 -197 -21 -91 -13 -265 16 -331 41
-95 130 -151 240 -152 84 0 130 13 182 53 68 52 99 123 105 244 11 190 -29
296 -134 355 -57 32 -158 45 -225 28z m150 -121 c69 -34 85 -80 81 -228 -3
-94 -8 -123 -24 -151 -39 -66 -137 -90 -203 -50 -54 33 -72 86 -72 215 0 140
18 186 82 215 55 25 82 25 136 -1z"/>
<path d="M6590 1213 c-63 -32 -75 -126 -23 -178 48 -47 124 -45 174 5 24 23
29 37 29 74 0 92 -94 143 -180 99z m121 -42 c34 -35 37 -68 9 -104 -26 -33
-70 -43 -108 -23 -32 17 -42 34 -42 72 0 78 85 111 141 55z"/>
<path d="M7352 1220 c-12 -5 -27 -21 -33 -34 -19 -41 9 -73 72 -83 62 -10 86
-35 55 -59 -29 -21 -64 -17 -92 11 -30 30 -44 32 -44 7 0 -44 85 -75 143 -53
36 14 54 53 39 85 -9 20 -23 27 -72 37 -64 12 -81 28 -60 54 18 21 56 19 80
-5 23 -23 50 -26 50 -7 0 38 -88 68 -138 47z"/>
<path d="M5470 1115 c0 -98 1 -105 20 -105 17 0 19 8 22 77 l3 78 63 -78 c39
-48 71 -77 83 -77 18 0 19 8 19 105 0 87 -3 105 -15 105 -12 0 -15 -15 -15
-75 0 -41 -3 -75 -7 -74 -5 0 -35 34 -67 75 -43 54 -66 74 -83 74 -23 0 -23
-2 -23 -105z"/>
<path d="M5740 1115 l0 -105 90 0 c73 0 90 3 90 15 0 12 -15 15 -75 15 l-75 0
0 30 c0 29 0 29 68 32 49 2 67 7 67 17 0 10 -17 14 -65 15 -63 1 -65 2 -68 29
l-3 27 70 0 c56 0 71 3 71 15 0 12 -16 15 -85 15 l-85 0 0 -105z"/>
<path d="M5952 1208 c3 -7 21 -14 41 -16 l37 -3 0 -90 c0 -82 1 -89 20 -89 19
0 20 7 20 90 l0 90 40 0 c29 0 40 4 40 15 0 12 -18 15 -101 15 -76 0 -100 -3
-97 -12z"/>
<path d="M6190 1213 c0 -4 14 -51 32 -105 27 -82 36 -98 53 -98 17 0 25 14 44
75 13 41 27 75 31 75 4 0 18 -34 31 -75 19 -62 26 -75 44 -75 17 0 26 15 53
98 37 113 37 112 18 112 -9 0 -23 -26 -36 -67 -13 -38 -26 -72 -30 -76 -4 -5
-19 24 -32 65 -19 56 -29 74 -45 76 -18 3 -24 -7 -43 -65 -12 -37 -26 -72 -31
-77 -4 -5 -18 26 -31 68 -17 57 -27 76 -40 76 -10 0 -18 -3 -18 -7z"/>
<path d="M6820 1115 c0 -85 3 -105 14 -105 10 0 16 14 18 43 l3 42 49 0 c52 0
60 -7 71 -57 8 -39 35 -37 35 3 0 17 -4 38 -10 48 -6 12 -5 29 2 49 9 23 9 37
0 56 -11 25 -15 26 -97 26 l-85 0 0 -105z m154 59 c11 -29 -13 -44 -70 -44
-53 0 -54 0 -54 30 0 30 0 30 59 30 45 0 60 -4 65 -16z"/>
<path d="M7070 1115 c0 -98 1 -105 20 -105 16 0 20 7 20 38 0 25 6 41 19 49
16 10 23 5 56 -38 27 -36 44 -49 62 -49 29 0 29 -1 -40 79 l-38 44 48 43 c43
39 46 43 24 44 -14 0 -43 -18 -75 -46 l-51 -47 -3 47 c-3 38 -7 46 -23 46 -18
0 -19 -8 -19 -105z"/>
</g>
</svg>
