<?xml version="1.0" standalone="no"?>
<!DOCTYPE svg PUBLIC "-//W3C//DTD SVG 20010904//EN"
 "http://www.w3.org/TR/2001/REC-SVG-20010904/DTD/svg10.dtd">
<svg version="1.0" xmlns="http://www.w3.org/2000/svg"
 width="600.000000pt" height="220.000000pt" viewBox="0 0 600.000000 220.000000"
 preserveAspectRatio="xMidYMid meet">
<metadata>
Created by potrace 1.15, written by Peter Selinger 2001-2017
</metadata>
<g transform="translate(0.000000,220.000000) scale(0.100000,-0.100000)"
fill="#000000" stroke="none">
<path d="M2198 1453 l3 -248 122 5 c186 8 209 30 215 219 5 125 -6 181 -41
219 -41 44 -69 52 -189 52 l-113 0 3 -247z m222 179 c54 -27 61 -50 58 -190
l-3 -124 -33 -29 c-30 -27 -38 -29 -112 -29 l-80 0 0 195 0 195 68 0 c44 0 79
-6 102 -18z"/>
<path d="M2990 1629 c0 -42 -3 -52 -20 -56 -11 -3 -20 -14 -20 -24 0 -12 7
-19 20 -19 19 0 20 -7 20 -135 0 -131 1 -137 25 -160 18 -18 35 -25 65 -25 36
0 40 2 40 25 0 19 -5 25 -23 25 -42 0 -47 17 -47 146 l0 123 33 3 c20 2 32 8
32 18 0 10 -12 16 -32 18 -30 3 -33 6 -33 38 0 46 -16 74 -40 74 -17 0 -20 -7
-20 -51z"/>
<path d="M1397 1602 c-37 -37 -67 -72 -67 -78 0 -5 32 -41 70 -79 l70 -69 70
69 c39 38 70 72 70 75 0 6 -82 93 -121 127 l-25 23 -67 -68z"/>
<path d="M2673 1569 c-40 -12 -46 -21 -28 -45 11 -15 16 -17 26 -6 8 7 39 12
75 12 54 0 65 -3 78 -22 9 -12 16 -37 16 -54 l0 -31 -82 -5 c-46 -2 -93 -11
-105 -18 -51 -33 -59 -116 -14 -161 26 -26 37 -29 89 -29 45 0 66 5 86 21 l26
20 0 -21 c0 -17 5 -21 28 -18 l27 3 3 100 c4 137 -4 200 -33 232 -20 24 -31
28 -91 30 -38 1 -83 -2 -101 -8z m167 -228 c0 -57 -25 -83 -87 -88 -42 -5 -54
-2 -72 16 -26 26 -27 63 -3 83 25 22 40 26 105 27 l57 1 0 -39z"/>
<path d="M3233 1566 c-35 -16 -38 -22 -24 -45 6 -10 13 -11 29 -2 11 6 48 11
81 11 51 0 62 -3 75 -22 9 -12 16 -37 16 -55 l0 -33 -62 0 c-84 0 -134 -15
-155 -47 -33 -50 -15 -130 34 -152 41 -19 127 -14 157 10 l26 20 0 -20 c0 -16
6 -21 26 -21 l25 0 -3 160 c-3 150 -4 161 -26 182 -18 19 -35 23 -95 25 -47 2
-83 -2 -104 -11z m175 -215 c9 -61 -31 -101 -103 -101 -41 0 -75 29 -75 63 0
48 37 67 120 64 49 -2 55 -4 58 -26z"/>
<path d="M1207 1408 l-68 -71 73 -74 73 -73 72 72 73 73 -72 72 c-40 40 -75
73 -78 73 -3 0 -36 -33 -73 -72z"/>
<path d="M1577 1408 l-68 -71 68 -69 c37 -37 72 -68 77 -68 6 0 41 30 78 67
l68 67 -72 73 c-40 40 -75 73 -78 73 -3 0 -36 -33 -73 -72z"/>
<path d="M1024 1225 l-71 -73 74 -74 73 -73 72 73 73 72 -75 74 -75 74 -71
-73z"/>
<path d="M1398 1228 c-38 -39 -68 -73 -68 -77 0 -4 32 -38 70 -76 l70 -70 73
73 72 72 -75 74 -75 75 -67 -71z"/>
<path d="M1765 1220 l-70 -70 73 -73 72 -72 72 72 73 73 -70 70 c-38 38 -72
70 -75 70 -3 0 -37 -32 -75 -70z"/>
<path d="M1211 1039 l-74 -71 74 -74 74 -74 73 73 72 72 -73 73 -73 73 -73
-72z"/>
<path d="M1582 1037 l-72 -72 73 -73 72 -72 73 73 73 73 -45 45 c-24 24 -57
56 -73 71 l-29 28 -72 -73z"/>
<path d="M2198 845 l-3 -245 148 0 c115 0 148 3 145 13 -3 8 -41 13 -131 15
l-127 3 0 104 0 105 96 0 c61 0 93 4 89 10 -3 6 -47 10 -96 10 l-90 0 3 103 3
102 128 0 c178 0 161 19 -21 23 l-141 3 -3 -246z"/>
<path d="M3200 1070 c0 -13 7 -20 20 -20 13 0 20 7 20 20 0 13 -7 20 -20 20
-13 0 -20 -7 -20 -20z"/>
<path d="M4930 1021 c0 -48 -2 -51 -25 -51 -16 0 -25 -6 -25 -15 0 -9 9 -15
24 -15 l24 0 4 -144 c3 -124 6 -147 22 -165 23 -26 96 -30 96 -6 0 10 -10 15
-28 15 -48 0 -52 13 -52 162 l0 138 41 0 c52 0 49 24 -4 28 -35 3 -36 4 -39
50 -2 35 -7 48 -20 50 -15 3 -18 -4 -18 -47z"/>
<path d="M2590 962 c-50 -24 -73 -78 -74 -166 0 -128 36 -185 121 -193 40 -4
55 0 86 21 21 14 40 26 43 26 3 0 4 -34 2 -75 -3 -66 -1 -75 15 -75 16 0 17
17 17 219 0 121 -3 226 -6 235 -9 25 -24 19 -24 -9 0 -31 -9 -31 -37 -1 -20
20 -61 36 -97 36 -6 0 -27 -8 -46 -18z m122 -34 c32 -16 50 -67 50 -143 0 -92
-18 -130 -71 -146 -86 -26 -141 29 -141 143 0 38 7 84 15 104 23 55 87 74 147
42z"/>
<path d="M3402 964 c-19 -10 -36 -23 -39 -31 -8 -20 -21 -16 -25 9 -2 12 -9
23 -15 26 -10 3 -13 -48 -13 -232 0 -203 2 -236 15 -236 12 0 15 15 15 75 0
41 3 75 7 75 4 0 17 -10 31 -22 35 -34 130 -33 166 1 35 33 50 83 49 167 -1
79 -22 136 -59 161 -36 23 -94 26 -132 7z m123 -55 c27 -27 30 -36 33 -108 5
-90 -11 -132 -58 -156 -37 -19 -63 -19 -100 0 -36 19 -46 36 -54 100 -22 164
83 259 179 164z"/>
<path d="M3755 966 c-17 -7 -37 -21 -45 -31 -14 -17 -15 -16 -20 5 -3 13 -11
25 -18 28 -9 3 -12 -39 -12 -177 0 -154 2 -181 15 -181 13 0 15 21 15 133 0
148 7 168 65 193 24 10 42 11 68 3 59 -16 67 -40 67 -194 0 -128 1 -135 20
-135 19 0 20 7 20 134 0 129 1 136 25 164 29 34 63 44 111 30 54 -14 64 -46
64 -198 0 -126 1 -130 21 -130 21 0 21 3 17 138 -4 115 -8 145 -24 173 -39 66
-140 75 -197 18 l-30 -31 -21 26 c-36 44 -88 55 -141 32z"/>
<path d="M4325 973 c-71 -18 -110 -93 -103 -200 6 -108 44 -159 125 -170 67
-9 173 40 146 67 -8 9 -18 7 -40 -10 -37 -27 -100 -35 -132 -18 -33 18 -59 56
-67 100 l-6 37 128 3 129 3 -3 49 c-5 100 -84 162 -177 139z m113 -56 c14 -14
26 -41 29 -66 l6 -42 -109 3 -109 3 3 30 c9 91 117 134 180 72z"/>
<path d="M4662 964 c-19 -10 -36 -23 -39 -31 -8 -20 -21 -16 -25 9 -2 12 -9
23 -15 26 -10 3 -13 -37 -13 -177 0 -154 2 -181 15 -181 12 0 15 19 15 115 0
123 10 165 48 199 33 29 97 25 130 -8 26 -26 27 -30 30 -166 3 -113 6 -140 18
-140 11 0 14 25 14 136 0 181 -16 216 -107 229 -25 4 -49 0 -71 -11z"/>
<path d="M2872 817 c3 -156 3 -157 31 -184 37 -38 116 -40 165 -5 32 23 32 23
32 3 0 -12 6 -21 15 -21 13 0 15 24 13 177 -2 130 -6 177 -15 181 -10 3 -13
-26 -13 -121 0 -68 -5 -138 -11 -155 -21 -61 -121 -79 -165 -31 -16 18 -19 41
-22 154 -3 104 -7 137 -18 146 -14 11 -15 -6 -12 -144z"/>
<path d="M3210 791 c0 -155 2 -181 15 -181 13 0 15 24 13 177 -2 130 -6 177
-15 181 -10 3 -13 -37 -13 -177z"/>
<path d="M1395 850 l-70 -70 73 -73 72 -72 72 72 73 73 -70 70 c-38 38 -72 70
-75 70 -3 0 -37 -32 -75 -70z"/>
</g>
</svg>
