<?xml version="1.0" encoding="UTF-8" standalone="no"?>
<svg
        xmlns:dc="http://purl.org/dc/elements/1.1/"
        xmlns:cc="http://creativecommons.org/ns#"
        xmlns:rdf="http://www.w3.org/1999/02/22-rdf-syntax-ns#"
        xmlns="http://www.w3.org/2000/svg"
        xmlns:xlink="http://www.w3.org/1999/xlink"
        xmlns:sodipodi="http://sodipodi.sourceforge.net/DTD/sodipodi-0.dtd"
        xmlns:inkscape="http://www.inkscape.org/namespaces/inkscape"
        width="400"
        height="180"
        viewBox="0 0 400 180"
        version="1.1"
        id="svg25"
        sodipodi:docname="matiq4.svg"
        inkscape:version="0.92.2 2405546, 2018-03-11">
  <metadata
     id="metadata29">
    <rdf:RDF>
      <cc:Work
         rdf:about="">
        <dc:format>image/svg+xml</dc:format>
        <dc:type
           rdf:resource="http://purl.org/dc/dcmitype/StillImage" />
        <dc:title>Logo</dc:title>
      </cc:Work>
    </rdf:RDF>
  </metadata>
  <sodipodi:namedview
     pagecolor="#ffffff"
     bordercolor="#666666"
     borderopacity="1"
     objecttolerance="10"
     gridtolerance="10"
     guidetolerance="10"
     inkscape:pageopacity="0"
     inkscape:pageshadow="2"
     inkscape:window-width="1440"
     inkscape:window-height="841"
     id="namedview27"
     showgrid="false"
     fit-margin-top="-2.7755576e-17"
     inkscape:zoom="0.99843478"
     inkscape:cx="49.479867"
     inkscape:cy="118.95192"
     inkscape:window-x="0"
     inkscape:window-y="0"
     inkscape:window-maximized="1"
     inkscape:current-layer="svg25" />
  <!-- Generator: Sketch 47.1 (45422) - http://www.bohemiancoding.com/sketch -->
  <title
     id="title2">Logo</title>
  <desc
     id="desc4">Created with Sketch.</desc>
  <defs
     id="defs7">
    <polygon
       id="path-1"
       points="0.38805147,31.900038 20.408885,31.900038 20.408885,0.20971698 0.38805147,0.20971698 " />
  </defs>
  <g
     id="Design-3"
     style="fill:none;fill-rule:evenodd;stroke:none;stroke-width:1"
     transform="matrix(2.0203477,0,0,2.0203477,74.116008,55.857342)">
    <g
       id="Homepage-v3--1"
       transform="translate(-60,-19)">
      <g
         id="Header"
         transform="translate(60)">
        <g
           id="Logo"
           transform="translate(0,19)">
          <path
             d="M 30,8.7972412 C 30,6.1026402 29.319901,4.3544118 27.572226,2.5580111 25.889647,0.76465935 24.056417,0 21.440794,0 H 2.0198388 C 1.50031,0 1.0725356,0.15976136 0.67265964,0.50245558 0.20086795,0.92685982 0,1.4171199 0,2.1421438 V 28.758265 c 0,1.125037 0.92374457,2.075068 2.0198388,2.075068 1.1109734,0 2.0855549,-0.970154 2.0855549,-2.075068 V 4.2190415 H 12.947303 V 28.758265 c 0,1.125037 0.924985,2.075068 2.019839,2.075068 1.110353,0 2.085555,-0.970154 2.085555,-2.075068 V 4.2190415 h 4.388097 c 1.367637,0 2.291382,0.3756221 3.189708,1.2976037 0.898326,0.9219817 1.265344,1.8732325 1.265344,3.280596 V 28.758265 c 0,1.125037 0.923745,2.075068 2.018599,2.075068 C 29.024798,30.833333 30,29.863179 30,28.758265 V 8.7972412"
             id="Fill-1"
             inkscape:connector-curvature="0"
             style="fill:#000000" />
          <path
             d="m 58.333333,8.7972412 c 0,-2.7061868 -0.713655,-4.5324665 -2.465356,-6.3032566 C 54.118796,0.72136524 52.332451,0 49.703326,0 H 40.9549 c -1.108591,0 -2.117032,1.0207653 -2.117032,2.1421438 0,1.106134 0.989544,2.0768977 2.117032,2.0768977 h 8.748426 c 1.360544,0 2.249937,0.3640364 3.175863,1.2976037 0.946082,0.959178 1.349836,1.9396981 1.349836,3.280596 V 13.307146 H 43.125472 c -4.195011,0 -6.458805,4.531247 -6.458805,8.796022 0,4.231846 2.263794,8.730165 6.458805,8.730165 h 13.155707 c 0.715546,0 1.199295,-0.205494 1.618166,-0.688437 0.299194,-0.427453 0.433988,-0.856126 0.433988,-1.386631 z M 54.111237,26.494776 H 43.125472 c -1.907281,0 -2.170572,-2.526913 -2.170572,-4.391608 0,-1.930552 0.263291,-4.457465 2.170572,-4.457465 h 10.985765 z"
             id="Fill-3"
             inkscape:connector-curvature="0"
             style="fill:#000000" />
          <path
             d="M 80.370079,0 H 64.629921 C 63.475978,0 62.5,0.96424419 62.5,2.1016513 c 0,1.1343692 0.955226,2.0579049 2.129921,2.0579049 h 5.740787 V 28.778466 c 0,1.133762 0.955855,2.054867 2.13055,2.054867 1.172808,0 2.128663,-0.921105 2.128663,-2.054867 V 4.1595562 h 5.740158 C 81.545403,4.1595562 82.5,3.2360205 82.5,2.1016513 82.5,0.96424419 81.524022,0 80.370079,0"
             id="Fill-5"
             inkscape:connector-curvature="0"
             style="fill:#000000" />
          <path
             d="M 92.059597,0 C 90.942765,0 90,0.96424419 90,2.1016513 V 28.778466 c 0,1.133762 0.92268,2.054867 2.059597,2.054867 1.141177,0 2.10707,-0.941763 2.10707,-2.054867 V 2.1016513 C 94.166667,0.98368705 93.183124,0 92.059597,0"
             id="Fill-7"
             inkscape:connector-curvature="0"
             style="fill:#000000" />
          <g
             id="Group-11"
             transform="translate(112.5,21.666667)"
             style="fill:#000000">
            <path
               d="M 0.5765,1.0818716 C -0.021,1.7581926 0.060875,2.7763037 0.760875,3.3546247 L 9.414,10.50318 c 0.70125,0.577111 1.753125,0.497864 2.34875,-0.181481 C 12.36025,9.6441679 12.279,8.6266617 11.579,8.0495506 L 2.925875,0.90099506 C 2.224625,0.32206914 1.17525,0.4037358 0.5765,1.0818716"
               id="Fill-9"
               inkscape:connector-curvature="0" />
          </g>
          <g
             id="Group-14"
             transform="translate(101.66667)">
            <mask
               id="mask-2"
               fill="white">
              <use
                 xlink:href="#path-1"
                 id="use15"
                 x="0"
                 y="0"
                 width="100%"
                 height="100%" />
            </mask>
            <g
               id="Clip-13" />
            <path
               d="m 20.379473,8.4614057 c 0,-5.1662736 -5.081495,-8.251934 -9.993872,-8.251934 -4.9148289,0 -9.99754953,3.0856604 -9.99754953,8.251934 L 0.41746324,23.64933 c 0,5.165047 5.08272056,8.250708 9.99448476,8.250708 2.914216,0 5.671569,-1.181651 7.607844,-3.139623 1.333333,-1.345991 2.389093,-3.005943 2.389093,-5.111085 z M 10.411948,27.980415 c -2.717524,0 -5.9019603,-1.753774 -5.9019603,-4.331085 L 4.480576,8.4614057 c 0,-2.5773114 3.1844362,-4.3323114 5.905025,-4.3323114 2.716911,0 5.901347,1.755 5.901347,4.3323114 L 16.31636,23.64933 c 0,2.577311 -3.18321,4.331085 -5.904412,4.331085 z"
               id="Fill-12"
               mask="url(#mask-2)"
               inkscape:connector-curvature="0"
               style="fill:#000000" />
          </g>
        </g>
      </g>
    </g>
  </g>
</svg>
