<?xml version="1.0" standalone="no"?>
<!DOCTYPE svg PUBLIC "-//W3C//DTD SVG 20010904//EN"
 "http://www.w3.org/TR/2001/REC-SVG-20010904/DTD/svg10.dtd">
<svg version="1.0" xmlns="http://www.w3.org/2000/svg"
 width="5500.000000pt" height="2600.000000pt" viewBox="0 0 5500.000000 2600.000000"
 preserveAspectRatio="xMidYMid meet">
<metadata>
Created by potrace 1.15, written by Peter Selinger 2001-2017
</metadata>
<g transform="translate(0.000000,2600.000000) scale(0.100000,-0.100000)"
fill="#000000" stroke="none">
<path d="M22000 12995 l0 -6445 1330 0 1330 0 0 6445 0 6445 -1330 0 -1330 0
0 -6445z"/>
<path d="M26550 18103 l0 -1330 168 -6 c1243 -45 2408 -732 3066 -1809 289
-474 463 -982 532 -1558 22 -180 25 -589 6 -770 -60 -569 -240 -1109 -530
-1588 -515 -849 -1352 -1470 -2307 -1711 -248 -62 -582 -111 -763 -111 -44 0
-100 -3 -126 -6 l-46 -7 0 -1328 0 -1329 28 0 c106 1 494 23 622 35 605 60
1259 223 1805 449 213 88 645 304 825 411 1373 822 2379 2081 2863 3582 141
435 238 921 284 1413 24 258 24 852 0 1110 -129 1379 -654 2619 -1551 3660
-214 249 -572 593 -835 804 -1092 876 -2444 1378 -3808 1413 l-233 6 0 -1330z"/>
</g>
</svg>
